<?xml version="1.0" encoding="UTF-8" standalone="no"?>
<!-- Created with Inkscape (http://www.inkscape.org/) -->

<svg
   xmlns:dc="http://purl.org/dc/elements/1.1/"
   xmlns:cc="http://creativecommons.org/ns#"
   xmlns:rdf="http://www.w3.org/1999/02/22-rdf-syntax-ns#"
   xmlns:svg="http://www.w3.org/2000/svg"
   xmlns="http://www.w3.org/2000/svg"
   xmlns:sodipodi="http://sodipodi.sourceforge.net/DTD/sodipodi-0.dtd"
   xmlns:inkscape="http://www.inkscape.org/namespaces/inkscape"
   width="34"
   height="34"
   viewBox="0 0 8.9958329 8.9958334"
   version="1.1"
   id="svg8"
   inkscape:version="0.92.4 (5da689c313, 2019-01-14)"
   sodipodi:docname="ArcB.svg">
  <defs
     id="defs2" />
  <sodipodi:namedview
     id="base"
     pagecolor="#ffffff"
     bordercolor="#666666"
     borderopacity="1.0"
     inkscape:pageopacity="0.0"
     inkscape:pageshadow="2"
     inkscape:zoom="5.6"
     inkscape:cx="50.843789"
     inkscape:cy="23.962107"
     inkscape:document-units="mm"
     inkscape:current-layer="layer1"
     showgrid="false"
     units="px"
     inkscape:window-width="1600"
     inkscape:window-height="837"
     inkscape:window-x="-8"
     inkscape:window-y="-8"
     inkscape:window-maximized="1" />
  <metadata
     id="metadata5">
    <rdf:RDF>
      <cc:Work
         rdf:about="">
        <dc:format>image/svg+xml</dc:format>
        <dc:type
           rdf:resource="http://purl.org/dc/dcmitype/StillImage" />
        <dc:title></dc:title>
      </cc:Work>
    </rdf:RDF>
  </metadata>
  <g
     inkscape:label="Layer 1"
     inkscape:groupmode="layer"
     id="layer1"
     transform="translate(0,-288.00417)">
    <path
       style="opacity:1;fill:#000000;fill-opacity:1;stroke:#ffffd9;stroke-width:0.09449405;stroke-opacity:0.25966851"
       d="m 3.4827907,295.82981 c -1.068647,-0.29254 -2.0380589,-1.20171 -2.412285,-2.26238 -0.26381096,-0.74772 -0.14511396,-2.01502 0.259569,-2.77134 0.221922,-0.41476 0.960414,-1.08823 1.52132,-1.38739 0.544666,-0.29049 0.6458,-0.31155 1.4962929,-0.3117 1.0069693,-1.7e-4 1.4345251,0.13059 2.1116661,0.6458 0.721124,0.54868 1.14686,1.22898 1.3352801,2.1337 0.3569891,1.71413 -0.788757,3.48327 -2.563704,3.95861 -0.454578,0.12174 -1.2933521,0.1192 -1.7481391,-0.005 z m -0.518239,-3.01698 c 0.622847,-0.6271 1.209577,-1.18284 1.3038451,-1.23497 0.1446929,-0.08 0.3672049,0.0976 1.4283349,1.14018 0.6913192,0.67924 1.300562,1.23498 1.353875,1.23498 0.1822561,0 0.400934,-0.75433 0.400934,-1.38302 0,-0.82215 -0.236088,-1.46779 -0.7446169,-2.03635 -0.8408929,-0.94016 -2.2623219,-1.36735 -3.197304,-0.96092 -1.1182171,0.48609 -1.4557111,0.76436 -1.8743801,1.54547 -0.256349,0.47826 -0.2784789,0.59626 -0.277471,1.47956 7.938e-4,0.80826 0.02935,0.99108 0.180009,1.15756 0.0984,0.10873 0.2048831,0.1977 0.23662,0.1977 0.03174,0 0.567303,-0.51308 1.190154,-1.14019 z"
       id="path7810"
       inkscape:connector-curvature="0" />
  </g>
</svg>
