<?xml version="1.0" encoding="UTF-8" standalone="no"?>
<!-- Created with Inkscape (http://www.inkscape.org/) -->

<svg
   xmlns:dc="http://purl.org/dc/elements/1.1/"
   xmlns:cc="http://creativecommons.org/ns#"
   xmlns:rdf="http://www.w3.org/1999/02/22-rdf-syntax-ns#"
   xmlns:svg="http://www.w3.org/2000/svg"
   xmlns="http://www.w3.org/2000/svg"
   xmlns:sodipodi="http://sodipodi.sourceforge.net/DTD/sodipodi-0.dtd"
   xmlns:inkscape="http://www.inkscape.org/namespaces/inkscape"
   width="34"
   height="34"
   viewBox="0 0 8.9958329 8.9958334"
   version="1.1"
   id="svg8"
   inkscape:version="0.92.4 (5da689c313, 2019-01-14)"
   sodipodi:docname="ArcF.svg">
  <defs
     id="defs2" />
  <sodipodi:namedview
     id="base"
     pagecolor="#ffffff"
     bordercolor="#666666"
     borderopacity="1.0"
     inkscape:pageopacity="0.0"
     inkscape:pageshadow="2"
     inkscape:zoom="5.6"
     inkscape:cx="24.14736"
     inkscape:cy="23.962107"
     inkscape:document-units="mm"
     inkscape:current-layer="layer1"
     showgrid="false"
     units="px"
     inkscape:window-width="1600"
     inkscape:window-height="837"
     inkscape:window-x="-8"
     inkscape:window-y="-8"
     inkscape:window-maximized="1" />
  <metadata
     id="metadata5">
    <rdf:RDF>
      <cc:Work
         rdf:about="">
        <dc:format>image/svg+xml</dc:format>
        <dc:type
           rdf:resource="http://purl.org/dc/dcmitype/StillImage" />
        <dc:title></dc:title>
      </cc:Work>
    </rdf:RDF>
  </metadata>
  <g
     inkscape:label="Layer 1"
     inkscape:groupmode="layer"
     id="layer1"
     transform="translate(0,-288.00417)">
    <path
       style="opacity:1;fill:#000000;fill-opacity:1;stroke:#ffffd9;stroke-width:0.09449405;stroke-opacity:0.25966851"
       d="m 3.6963252,296.05616 c -1.874398,-0.51418 -3.00066105,-2.2311 -2.646296,-4.03412 0.150487,-0.76568 0.329866,-1.16453 0.73598,-1.63646 1.606542,-1.86689 4.3778231,-1.63317 5.6564191,0.47705 0.3245991,0.53572 0.4548,1.05558 0.4548,1.81587 0,0.81735 -0.1045581,1.14641 -0.5966032,1.8776 -0.5453009,0.81033 -1.1769468,1.25318 -2.1453559,1.50412 -0.6449611,0.16713 -0.8368189,0.16659 -1.458944,-0.004 z m 2.1220351,-0.65815 c 0.9146169,-0.45382 1.529294,-1.31012 1.662784,-2.31643 0.08439,-0.63618 -0.03411,-1.46258 -0.2467002,-1.72041 l -0.1773258,-0.21506 -1.2584801,1.25205 c -0.6921659,0.68862 -1.3181679,1.25204 -1.3911209,1.25204 -0.07295,0 -0.6988231,-0.56064 -1.3908271,-1.24586 -0.692005,-0.68523 -1.275744,-1.22739 -1.2971991,-1.2048 -0.1869659,0.19682 -0.342178,0.87637 -0.3411539,1.49364 0.0011,0.6134 0.04374,0.80468 0.28675,1.28392 0.335111,0.66087 0.478922,0.83327 0.988232,1.18464 0.928476,0.64056 2.1643051,0.73282 3.1650411,0.23627 z"
       id="path7816"
       inkscape:connector-curvature="0" />
  </g>
</svg>
