<?xml version="1.0" encoding="UTF-8" standalone="no"?>
<!-- Created with Inkscape (http://www.inkscape.org/) -->

<svg
   xmlns:dc="http://purl.org/dc/elements/1.1/"
   xmlns:cc="http://creativecommons.org/ns#"
   xmlns:rdf="http://www.w3.org/1999/02/22-rdf-syntax-ns#"
   xmlns:svg="http://www.w3.org/2000/svg"
   xmlns="http://www.w3.org/2000/svg"
   xmlns:sodipodi="http://sodipodi.sourceforge.net/DTD/sodipodi-0.dtd"
   xmlns:inkscape="http://www.inkscape.org/namespaces/inkscape"
   width="34"
   height="34"
   viewBox="0 0 8.9958329 8.9958334"
   version="1.1"
   id="svg8"
   inkscape:version="0.92.4 (5da689c313, 2019-01-14)"
   sodipodi:docname="ArcFB.svg">
  <defs
     id="defs2" />
  <sodipodi:namedview
     id="base"
     pagecolor="#ffffff"
     bordercolor="#666666"
     borderopacity="1.0"
     inkscape:pageopacity="0.0"
     inkscape:pageshadow="2"
     inkscape:zoom="5.6"
     inkscape:cx="50.843789"
     inkscape:cy="23.962107"
     inkscape:document-units="mm"
     inkscape:current-layer="layer1"
     showgrid="false"
     units="px"
     inkscape:window-width="1600"
     inkscape:window-height="837"
     inkscape:window-x="-8"
     inkscape:window-y="-8"
     inkscape:window-maximized="1" />
  <metadata
     id="metadata5">
    <rdf:RDF>
      <cc:Work
         rdf:about="">
        <dc:format>image/svg+xml</dc:format>
        <dc:type
           rdf:resource="http://purl.org/dc/dcmitype/StillImage" />
        <dc:title></dc:title>
      </cc:Work>
    </rdf:RDF>
  </metadata>
  <g
     inkscape:label="Layer 1"
     inkscape:groupmode="layer"
     id="layer1"
     transform="translate(0,-288.00417)">
    <path
       style="opacity:1;fill:#000000;fill-opacity:1;stroke:#ffffd9;stroke-width:0.09449405;stroke-opacity:0.25966851"
       d="m 2.9795891,295.52705 c -0.634093,-0.32321 -1.010865,-0.70269 -1.386319,-1.39628 -0.293902,-0.54293 -0.31288,-0.63403 -0.307557,-1.47633 0.0044,-0.70131 0.04809,-0.98689 0.199551,-1.30544 0.326785,-0.68728 0.923322,-1.29967 1.57556,-1.61742 0.525571,-0.25604 0.691665,-0.28994 1.420566,-0.28994 0.6817781,0 0.916133,0.0415 1.346753,0.23847 0.6335871,0.28981 1.2476242,0.89317 1.599189,1.57138 0.2315771,0.44674 0.2622,0.60922 0.264404,1.40295 0.00209,0.79233 -0.02733,0.95539 -0.2516238,1.38925 -0.3264802,0.63152 -0.8894001,1.20306 -1.4742192,1.4968 -0.4074689,0.20466 -0.584287,0.23196 -1.4881249,0.22982 -0.9099631,-0.002 -1.0790261,-0.0296 -1.4981791,-0.24326 z m 1.22842,-3.62856 c 0.215768,-0.23842 0.3511981,-0.23842 0.5669651,0 0.1534379,0.16954 0.291039,0.18898 1.3375618,0.18898 1.3328653,0 1.3229403,0.008 0.9348153,-0.76461 -0.6908562,-1.37547 -2.3851161,-1.94494 -3.7842822,-1.27198 -0.784644,0.3774 -1.369984,1.04748 -1.510771,1.72949 l -0.0634,0.3071 h 1.174038 c 1.0540311,0 1.1915221,-0.0193 1.3450701,-0.18898 z"
       id="path7804"
       inkscape:connector-curvature="0" />
  </g>
</svg>
