<?xml version="1.0" encoding="UTF-8" standalone="no"?>
<!-- Created with Inkscape (http://www.inkscape.org/) -->

<svg
   xmlns:dc="http://purl.org/dc/elements/1.1/"
   xmlns:cc="http://creativecommons.org/ns#"
   xmlns:rdf="http://www.w3.org/1999/02/22-rdf-syntax-ns#"
   xmlns:svg="http://www.w3.org/2000/svg"
   xmlns="http://www.w3.org/2000/svg"
   xmlns:sodipodi="http://sodipodi.sourceforge.net/DTD/sodipodi-0.dtd"
   xmlns:inkscape="http://www.inkscape.org/namespaces/inkscape"
   width="34"
   height="34"
   viewBox="0 0 8.9958329 8.9958334"
   version="1.1"
   id="svg8"
   inkscape:version="0.92.4 (5da689c313, 2019-01-14)"
   sodipodi:docname="ArcL.svg">
  <defs
     id="defs2" />
  <sodipodi:namedview
     id="base"
     pagecolor="#ffffff"
     bordercolor="#666666"
     borderopacity="1.0"
     inkscape:pageopacity="0.0"
     inkscape:pageshadow="2"
     inkscape:zoom="5.6"
     inkscape:cx="24.14736"
     inkscape:cy="23.962107"
     inkscape:document-units="mm"
     inkscape:current-layer="layer1"
     showgrid="false"
     units="px"
     inkscape:window-width="1600"
     inkscape:window-height="837"
     inkscape:window-x="-8"
     inkscape:window-y="-8"
     inkscape:window-maximized="1" />
  <metadata
     id="metadata5">
    <rdf:RDF>
      <cc:Work
         rdf:about="">
        <dc:format>image/svg+xml</dc:format>
        <dc:type
           rdf:resource="http://purl.org/dc/dcmitype/StillImage" />
        <dc:title></dc:title>
      </cc:Work>
    </rdf:RDF>
  </metadata>
  <g
     inkscape:label="Layer 1"
     inkscape:groupmode="layer"
     id="layer1"
     transform="translate(0,-288.00417)">
    <path
       style="opacity:1;fill:#000000;fill-opacity:1;stroke:#ffffd9;stroke-width:0.09449405;stroke-opacity:0.25966851"
       d="m 3.7447852,296.15172 c -0.8408639,-0.21653 -1.5125039,-0.66338 -2.0897079,-1.39033 -0.599252,-0.75472 -0.80176201,-2.48636 -0.408774,-3.49538 0.419709,-1.07762 1.064988,-1.69401 2.20525,-2.10651 0.7681939,-0.2779 1.2382601,-0.29377 1.946878,-0.0657 0.744238,0.23951 1.0270199,0.41154 1.545971,0.94051 0.8643541,0.88104 1.2532231,2.10991 1.0134071,3.20248 -0.341067,1.55387 -1.243878,2.53225 -2.701118,2.92721 -0.5636422,0.15276 -0.8810202,0.15019 -1.5119062,-0.0123 z m 2.117897,-0.62425 c 0.737254,-0.38646 1.0502212,-0.70556 1.4112642,-1.43894 0.2684881,-0.54538 0.2978489,-0.69042 0.2978489,-1.47143 0,-0.76099 -0.0338,-0.93871 -0.2777728,-1.46054 -0.3130492,-0.66957 -0.8225761,-1.18125 -1.4934401,-1.49975 -0.609722,-0.28947 -2.098802,-0.30864 -2.5097951,-0.0323 l -0.26501,0.17818 1.276652,1.28842 1.2766511,1.28841 -0.123452,0.35909 c -0.0847,0.24638 -0.4879491,0.72447 -1.2846971,1.52314 l -1.161248,1.16404 0.367551,0.19384 c 0.281686,0.14856 0.5493519,0.19482 1.1457461,0.19802 0.6922899,0.004 0.840179,-0.0283 1.3397018,-0.29016 z"
       id="path7814"
       inkscape:connector-curvature="0" />
  </g>
</svg>
