<?xml version="1.0" encoding="UTF-8" standalone="no"?>
<!-- Created with Inkscape (http://www.inkscape.org/) -->

<svg
   xmlns:dc="http://purl.org/dc/elements/1.1/"
   xmlns:cc="http://creativecommons.org/ns#"
   xmlns:rdf="http://www.w3.org/1999/02/22-rdf-syntax-ns#"
   xmlns:svg="http://www.w3.org/2000/svg"
   xmlns="http://www.w3.org/2000/svg"
   xmlns:sodipodi="http://sodipodi.sourceforge.net/DTD/sodipodi-0.dtd"
   xmlns:inkscape="http://www.inkscape.org/namespaces/inkscape"
   width="34"
   height="34"
   viewBox="0 0 8.9958329 8.9958334"
   version="1.1"
   id="svg8"
   inkscape:version="0.92.4 (5da689c313, 2019-01-14)"
   sodipodi:docname="ArcR.svg">
  <defs
     id="defs2" />
  <sodipodi:namedview
     id="base"
     pagecolor="#ffffff"
     bordercolor="#666666"
     borderopacity="1.0"
     inkscape:pageopacity="0.0"
     inkscape:pageshadow="2"
     inkscape:zoom="5.6"
     inkscape:cx="24.14736"
     inkscape:cy="23.962107"
     inkscape:document-units="mm"
     inkscape:current-layer="layer1"
     showgrid="false"
     units="px"
     inkscape:window-width="1600"
     inkscape:window-height="837"
     inkscape:window-x="-8"
     inkscape:window-y="-8"
     inkscape:window-maximized="1" />
  <metadata
     id="metadata5">
    <rdf:RDF>
      <cc:Work
         rdf:about="">
        <dc:format>image/svg+xml</dc:format>
        <dc:type
           rdf:resource="http://purl.org/dc/dcmitype/StillImage" />
        <dc:title></dc:title>
      </cc:Work>
    </rdf:RDF>
  </metadata>
  <g
     inkscape:label="Layer 1"
     inkscape:groupmode="layer"
     id="layer1"
     transform="translate(0,-288.00417)">
    <path
       style="opacity:1;fill:#000000;fill-opacity:1;stroke:#ffffd9;stroke-width:0.09449405;stroke-opacity:0.25966851"
       d="m 3.7555931,296.18682 c -1.106834,-0.36297 -1.9229841,-1.03534 -2.3825091,-1.96279 -0.238411,-0.48118 -0.258564,-0.6091 -0.253561,-1.60941 0.0046,-0.90938 0.03885,-1.15821 0.210254,-1.52509 0.244705,-0.52379 0.9277401,-1.30733 1.3047181,-1.49669 0.148857,-0.0748 0.328742,-0.17891 0.399746,-0.23141 0.280519,-0.20743 0.847876,-0.3348 1.4973831,-0.33616 1.199936,-0.002 2.2152399,0.52733 2.8667308,1.496 0.478586,0.71159 0.5852742,1.15994 0.5473621,2.30032 -0.02846,0.85616 -0.06633,1.04119 -0.312465,1.52697 -0.287782,0.56797 -0.961345,1.25632 -1.4973509,1.53021 -0.7346021,0.37538 -1.7674172,0.50904 -2.3803081,0.30805 z m 1.886675,-0.51864 c 0.1836631,-0.0876 0.333933,-0.19611 0.333933,-0.24117 0,-0.0451 -0.510267,-0.58948 -1.1339269,-1.20984 -0.62366,-0.62035 -1.1339301,-1.18967 -1.1339301,-1.26516 0,-0.0755 -0.04252,-0.16353 -0.09449,-0.19565 -0.23436,-0.14484 -0.01238,-0.45788 1.1575519,-1.63236 l 1.2520462,-1.25691 -0.2286402,-0.17426 c -0.1257538,-0.0958 -0.4596678,-0.20141 -0.7420369,-0.2346 -2.055349,-0.24156 -3.6122821,1.11888 -3.6122821,3.15639 0,1.33203 0.605324,2.33973 1.7551001,2.92177 0.483897,0.24496 0.665515,0.284 1.336373,0.28725 0.5394751,0.003 0.878264,-0.0448 1.1103059,-0.15546 z"
       id="path7812"
       inkscape:connector-curvature="0" />
  </g>
</svg>
