<?xml version="1.0" encoding="UTF-8" standalone="no"?>
<!-- Created with Inkscape (http://www.inkscape.org/) -->

<svg
   xmlns:dc="http://purl.org/dc/elements/1.1/"
   xmlns:cc="http://creativecommons.org/ns#"
   xmlns:rdf="http://www.w3.org/1999/02/22-rdf-syntax-ns#"
   xmlns:svg="http://www.w3.org/2000/svg"
   xmlns="http://www.w3.org/2000/svg"
   xmlns:sodipodi="http://sodipodi.sourceforge.net/DTD/sodipodi-0.dtd"
   xmlns:inkscape="http://www.inkscape.org/namespaces/inkscape"
   width="47"
   height="34"
   viewBox="0 0 12.435416 8.9958334"
   version="1.1"
   id="svg8"
   inkscape:version="0.92.4 (5da689c313, 2019-01-14)"
   sodipodi:docname="b-rolll.svg">
  <defs
     id="defs2" />
  <sodipodi:namedview
     id="base"
     pagecolor="#ffffff"
     bordercolor="#666666"
     borderopacity="1.0"
     inkscape:pageopacity="0.0"
     inkscape:pageshadow="2"
     inkscape:zoom="5.6"
     inkscape:cx="24.14736"
     inkscape:cy="23.962107"
     inkscape:document-units="mm"
     inkscape:current-layer="layer1"
     showgrid="false"
     units="px"
     inkscape:window-width="1600"
     inkscape:window-height="837"
     inkscape:window-x="-8"
     inkscape:window-y="-8"
     inkscape:window-maximized="1" />
  <metadata
     id="metadata5">
    <rdf:RDF>
      <cc:Work
         rdf:about="">
        <dc:format>image/svg+xml</dc:format>
        <dc:type
           rdf:resource="http://purl.org/dc/dcmitype/StillImage" />
        <dc:title></dc:title>
      </cc:Work>
    </rdf:RDF>
  </metadata>
  <g
     inkscape:label="Layer 1"
     inkscape:groupmode="layer"
     id="layer1"
     transform="translate(0,-288.00417)">
    <path
       style="opacity:1;fill:#000000;fill-opacity:1;stroke:#ffffd9;stroke-width:0.09449405;stroke-opacity:0.25966851"
       d="m 6.3524328,289.72365 c -0.9160319,0 -0.935405,0.005 -1.2738258,0.30696 -0.5142042,0.45949 -0.8247542,1.11058 -0.8247542,1.72961 0,0.28309 0.0426,0.5147 0.09457,0.5147 0.05197,0 0.09457,0.0793 0.09457,0.17621 0,0.0969 0.08814,0.28836 0.195853,0.4253 0.2644799,0.33623 0.900951,0.35404 1.2019939,0.0336 0.198837,-0.21165 0.1992151,-0.21722 0.019121,-0.32969 -0.1008184,-0.063 -0.2684893,-0.28997 -0.3720713,-0.50437 -0.1758479,-0.36396 -0.178181,-0.40927 -0.03824,-0.68574 0.268292,-0.53007 0.405897,-0.62684 0.8908989,-0.62684 0.6202662,0 0.842328,0.27733 0.842328,1.05162 0,0.50375 -0.03082,0.58827 -0.3415829,0.93224 -0.200937,0.22242 -0.4269819,0.37827 -0.548804,0.37827 -0.11395,0 -0.2897899,0.0627 -0.3906729,0.13901 -0.2060392,0.15584 -1.9742891,0.20437 -2.2014151,0.0605 -0.08858,-0.0561 -0.108363,-0.17273 -0.06356,-0.37672 0.05925,-0.26978 0.04447,-0.29507 -0.173117,-0.29507 -0.13099,0 -0.264504,0.0426 -0.296624,0.0946 -0.03212,0.052 -0.172789,0.0956 -0.312642,0.0971 -0.139857,0.002 -0.3368151,0.0658 -0.4376981,0.14211 -0.1008829,0.0763 -0.2761379,0.13849 -0.3891249,0.13849 -0.112988,0 -0.320829,0.091 -0.461987,0.20206 l -0.256315,0.20153 0.361736,0.3235 c 0.199115,0.17779 0.511347,0.42117 0.6940129,0.54105 0.1826631,0.11989 0.3898711,0.28756 0.460438,0.37259 0.1787981,0.21544 0.2840671,0.19331 0.3886071,-0.0816 l 0.08992,-0.23616 h 1.322401 c 1.3480039,0 1.4315199,-0.0164 2.340424,-0.45837 0.395714,-0.19243 0.9720339,-0.72358 0.9720339,-0.89555 0,-0.0743 0.06415,-0.188 0.1421111,-0.2527 0.07796,-0.0647 0.1415939,-0.24236 0.1415939,-0.39533 0,-0.15296 0.04709,-0.36688 0.104902,-0.4749 0.07558,-0.14119 0.07686,-0.292 0.0047,-0.53692 -0.055249,-0.18739 -0.1252109,-0.4601 -0.1555448,-0.60617 -0.03034,-0.14607 -0.2436662,-0.4545 -0.47439,-0.68523 l -0.4196146,-0.41961 z m 3.0163532,3.20911 -0.237712,0.23823 c -0.1502441,0.15024 -0.3446941,0.23823 -0.526066,0.23823 -0.3022412,0 -1.1703211,0.55052 -1.267624,0.80408 -0.0628,0.16365 0.139787,0.22273 0.8852188,0.25787 l 0.5198642,0.0243 0.02894,0.3545 c 0.03033,0.36647 0.1455131,0.43377 0.46819,0.27286 0.3021409,-0.15068 0.822638,-0.31957 1.124996,-0.36484 0.164732,-0.0247 0.390964,-0.14194 0.502295,-0.26045 l 0.202054,-0.21549 -0.312642,-0.19379 c -0.172122,-0.10652 -0.440946,-0.32817 -0.596863,-0.49247 -0.155916,-0.16431 -0.397444,-0.38032 -0.5369189,-0.48059 z"
       id="path7824"
       inkscape:connector-curvature="0" />
  </g>
</svg>
