<?xml version="1.0" encoding="UTF-8" standalone="no"?>
<!-- Created with Inkscape (http://www.inkscape.org/) -->

<svg
   xmlns:dc="http://purl.org/dc/elements/1.1/"
   xmlns:cc="http://creativecommons.org/ns#"
   xmlns:rdf="http://www.w3.org/1999/02/22-rdf-syntax-ns#"
   xmlns:svg="http://www.w3.org/2000/svg"
   xmlns="http://www.w3.org/2000/svg"
   xmlns:sodipodi="http://sodipodi.sourceforge.net/DTD/sodipodi-0.dtd"
   xmlns:inkscape="http://www.inkscape.org/namespaces/inkscape"
   width="34"
   height="34"
   viewBox="0 0 8.9958329 8.9958334"
   version="1.1"
   id="svg8"
   inkscape:version="0.92.4 (5da689c313, 2019-01-14)"
   sodipodi:docname="boost.svg">
  <defs
     id="defs2" />
  <sodipodi:namedview
     id="base"
     pagecolor="#ffffff"
     bordercolor="#666666"
     borderopacity="1.0"
     inkscape:pageopacity="0.0"
     inkscape:pageshadow="2"
     inkscape:zoom="5.6"
     inkscape:cx="24.14736"
     inkscape:cy="23.962107"
     inkscape:document-units="mm"
     inkscape:current-layer="layer1"
     showgrid="false"
     units="px"
     inkscape:window-width="1600"
     inkscape:window-height="837"
     inkscape:window-x="-8"
     inkscape:window-y="-8"
     inkscape:window-maximized="1" />
  <metadata
     id="metadata5">
    <rdf:RDF>
      <cc:Work
         rdf:about="">
        <dc:format>image/svg+xml</dc:format>
        <dc:type
           rdf:resource="http://purl.org/dc/dcmitype/StillImage" />
        <dc:title></dc:title>
      </cc:Work>
    </rdf:RDF>
  </metadata>
  <g
     inkscape:label="Layer 1"
     inkscape:groupmode="layer"
     id="layer1"
     transform="translate(0,-288.00417)">
    <path
       style="opacity:1;fill:#000000;fill-opacity:1;stroke:#ffffd9;stroke-width:0.02362351;stroke-opacity:0.25966851"
       d="m 4.5517349,288.65858 c -0.1895981,0.006 -1.289592,1.61752 -1.201478,1.76009 0.03602,0.0583 0.219895,0.10594 0.408763,0.10594 h 0.343648 l -0.08888,1.43661 c -0.05374,0.86898 -0.03492,1.61893 0.04806,1.89859 0.09056,0.30521 0.09254,0.50743 0.0052,0.59479 -0.1613239,0.16133 -0.166356,0.45477 -0.025839,0.65423 0.0077,0.0306 0.01955,0.0491 0.04031,0.0682 0.017949,0.0165 0.03966,0.0254 0.06149,0.0372 0.1825119,0.13848 0.4797851,0.1561 0.782897,0.0398 0.024299,-0.009 0.04656,-0.0273 0.06718,-0.0501 0.05707,-0.0272 0.08303,-0.074 0.0925,-0.18086 0.08435,-0.25536 0.07526,-0.62322 -0.07855,-0.62322 -0.08468,0 -0.08468,-0.11989 0,-0.34262 0.07168,-0.18853 0.130225,-1.06066 0.130225,-1.93786 0,-1.48966 0.01715,-1.59474 0.259416,-1.59474 0.142661,0 0.289391,-0.0486 0.3260781,-0.108 0.09155,-0.14813 -0.9847771,-1.76399 -1.1709882,-1.75803 z m 2.051037,2.1332 c -0.07119,0 -0.129191,0.14466 -0.129191,0.32143 0,0.2396 -0.1531861,0.41112 -0.601512,0.67386 -0.5925449,0.34725 -0.601514,0.36264 -0.601514,1.05936 0,0.3889 0.03974,0.74668 0.08785,0.79479 0.04811,0.0481 0.2832698,-0.13765 0.5229638,-0.41238 0.3729122,-0.42742 0.4490881,-0.46573 0.5281332,-0.26562 0.05081,0.12862 0.177088,0.2341 0.2806028,0.2341 0.2769581,0 1.6541623,-0.94612 1.6541623,-1.13637 0,-0.16804 -1.5109211,-1.26917 -1.7414951,-1.26917 z m -4.253487,0.0155 c -0.227298,0.0518 -1.62212296,1.10668 -1.62212296,1.2423 0,0.12346 1.11942796,0.95946 1.51050296,1.1281 0.06042,0.026 0.197692,-0.0642 0.30489,-0.20051 0.185375,-0.23569 0.21612,-0.22363 0.624769,0.24185 0.236318,0.26919 0.475681,0.46098 0.5317491,0.42633 0.05607,-0.0346 0.101804,-0.38914 0.101804,-0.78755 0,-0.71177 -0.0095,-0.7293 -0.5400201,-0.99993 -0.300003,-0.15306 -0.608722,-0.43599 -0.695047,-0.63718 -0.08544,-0.19913 -0.169633,-0.3836 -0.187069,-0.40979 -0.004,-0.006 -0.0143,-0.007 -0.02946,-0.004 z m 2.2463761,4.62504 c -0.2090841,-0.003 -0.4240451,0.002 -0.4785251,0.0171 -0.09062,0.0254 -0.135554,0.10646 -0.161748,0.29146 -0.02539,0.17926 7.937e-4,0.30145 0.07286,0.34003 0.02395,0.0128 0.09632,0.0348 0.160715,0.0486 0.06926,0.0148 0.1389732,0.0485 0.1710481,0.0827 0.04649,0.0495 0.07558,0.0579 0.2046399,0.0579 0.1277591,0 0.1591651,-0.009 0.2077371,-0.0574 0.05849,-0.0585 0.06824,-0.0626 0.2418479,-0.10749 0.1411822,-0.0365 0.1819831,-0.12011 0.1596792,-0.32866 -0.019021,-0.17787 -0.05963,-0.27177 -0.135909,-0.31368 -0.02996,-0.0165 -0.233267,-0.0275 -0.4423492,-0.0305 z"
       id="path7836"
       inkscape:connector-curvature="0" />
  </g>
</svg>
