<?xml version="1.0" encoding="UTF-8" standalone="no"?>
<!-- Created with Inkscape (http://www.inkscape.org/) -->

<svg
   xmlns:dc="http://purl.org/dc/elements/1.1/"
   xmlns:cc="http://creativecommons.org/ns#"
   xmlns:rdf="http://www.w3.org/1999/02/22-rdf-syntax-ns#"
   xmlns:svg="http://www.w3.org/2000/svg"
   xmlns="http://www.w3.org/2000/svg"
   xmlns:sodipodi="http://sodipodi.sourceforge.net/DTD/sodipodi-0.dtd"
   xmlns:inkscape="http://www.inkscape.org/namespaces/inkscape"
   width="30"
   height="34"
   viewBox="0 0 7.9374995 8.9958334"
   version="1.1"
   id="svg8"
   inkscape:version="0.92.4 (5da689c313, 2019-01-14)"
   sodipodi:docname="crit.svg">
  <defs
     id="defs2" />
  <sodipodi:namedview
     id="base"
     pagecolor="#ffffff"
     bordercolor="#666666"
     borderopacity="1.0"
     inkscape:pageopacity="0.0"
     inkscape:pageshadow="2"
     inkscape:zoom="5.6"
     inkscape:cx="24.14736"
     inkscape:cy="23.962107"
     inkscape:document-units="mm"
     inkscape:current-layer="layer1"
     showgrid="false"
     units="px"
     inkscape:window-width="1600"
     inkscape:window-height="837"
     inkscape:window-x="-8"
     inkscape:window-y="-8"
     inkscape:window-maximized="1" />
  <metadata
     id="metadata5">
    <rdf:RDF>
      <cc:Work
         rdf:about="">
        <dc:format>image/svg+xml</dc:format>
        <dc:type
           rdf:resource="http://purl.org/dc/dcmitype/StillImage" />
        <dc:title></dc:title>
      </cc:Work>
    </rdf:RDF>
  </metadata>
  <g
     inkscape:label="Layer 1"
     inkscape:groupmode="layer"
     id="layer1"
     transform="translate(0,-288.00417)">
    <path
       style="opacity:1;fill:#000000;fill-opacity:1;stroke:#ffffd9;stroke-width:0.13363476;stroke-opacity:0.25966851"
       d="m 2.4236051,295.93121 c 0,-0.0446 0.1000839,-0.49577 0.2224078,-1.00258 0.1223251,-0.50681 0.1803091,-0.96357 0.1288551,-1.01503 -0.05146,-0.0515 -0.37705,0.0168 -0.72354,0.15156 -0.3464899,0.13481 -0.810392,0.27022 -1.030888,0.30091 -0.38370901,0.0534 -0.36794801,0.0253 0.367496,-0.65523 0.422619,-0.39106 0.7684,-0.78508 0.7684,-0.87561 0,-0.0905 -0.240543,-0.26879 -0.534541,-0.39616 -0.293997,-0.12737 -0.53454,-0.30196 -0.53454,-0.38797 0,-0.0867 0.302808,-0.19803 0.679138,-0.24979 0.6313491,-0.0868 0.6735311,-0.11573 0.599493,-0.41072 -0.04381,-0.17453 -0.261948,-0.62651 -0.484764,-1.00441 -0.222817,-0.3779 -0.372962,-0.71925 -0.333656,-0.75855 0.0393,-0.0393 0.427845,0.20852 0.863418,0.55073 0.435578,0.34221 0.853119,0.62219 0.9278719,0.62219 0.1525561,0 0.1898861,-0.11465 0.4283792,-1.31568 0.1932519,-0.9732 0.302101,-0.89739 0.5599268,0.38995 0.09233,0.46103 0.2334742,0.85974 0.31364,0.88603 0.08017,0.0263 0.5001871,-0.22743 0.9333781,-0.56381 0.433189,-0.33638 0.8055379,-0.55783 0.8274449,-0.49212 0.02191,0.0657 -0.172606,0.51281 -0.4322469,0.99354 -0.2596409,0.48073 -0.4720751,0.91084 -0.4720751,0.9558 0,0.045 0.2555772,0.0877 0.567949,0.0951 1.2055822,0.0283 1.412399,0.29712 0.5011291,0.65143 -0.9063541,0.35239 -0.90574,0.39401 0.018359,1.24562 0.881444,0.81231 0.880877,0.81325 -0.285623,0.47503 -0.2572459,-0.0746 -0.633095,-0.16755 -0.8352179,-0.20659 l -0.3674959,-0.071 v 0.83742 0.83743 L 4.813625,295.19757 c -0.1554739,-0.17662 -0.3728641,-0.45643 -0.4830919,-0.6218 -0.1102251,-0.16538 -0.2539582,-0.30068 -0.319405,-0.30068 -0.06545,0 -0.400187,0.39088 -0.7438681,0.86862 -0.552892,0.76857 -0.8436499,1.03998 -0.8436499,0.78753 z m 1.636093,-2.45796 c 0.04514,0 0.1765668,0.0945 0.2920659,0.21 0.190904,0.1909 0.2099968,0.1774 0.2099968,-0.14851 0,-0.34181 0.023339,-0.35415 0.5011291,-0.265 l 0.5011311,0.0935 -0.3173121,-0.33881 c -0.3014189,-0.32184 -0.3056729,-0.35045 -0.08496,-0.57116 0.2207159,-0.22072 0.217501,-0.23785 -0.06415,-0.34204 -0.163076,-0.0603 -0.26592,-0.18447 -0.2285371,-0.27587 0.3069112,-0.75045 0.3106532,-0.7193 -0.05741,-0.47813 -0.389382,0.25513 -0.5705841,0.18249 -0.7219069,-0.2894 -0.1068729,-0.33329 -0.107405,-0.33305 -0.221216,0.0961 -0.106071,0.39997 -0.1374,0.41957 -0.4459841,0.27897 -0.413594,-0.18845 -0.5325219,-0.0839 -0.3315969,0.29155 0.1332629,0.249 0.115803,0.29872 -0.127212,0.36227 -0.2635911,0.0689 -0.268414,0.0939 -0.07515,0.38884 0.191321,0.29199 0.18673,0.32753 -0.06242,0.48313 -0.395758,0.24715 -0.327268,0.40497 0.131974,0.30411 0.38135,-0.0838 0.4009049,-0.0669 0.4009049,0.34676 v 0.43482 l 0.3092932,-0.29057 c 0.1701077,-0.15981 0.34622,-0.29056 0.3913579,-0.29056 z"
       id="path7858"
       inkscape:connector-curvature="0" />
  </g>
</svg>
