<?xml version="1.0" encoding="UTF-8" standalone="no"?>
<!-- Created with Inkscape (http://www.inkscape.org/) -->

<svg
   xmlns:dc="http://purl.org/dc/elements/1.1/"
   xmlns:cc="http://creativecommons.org/ns#"
   xmlns:rdf="http://www.w3.org/1999/02/22-rdf-syntax-ns#"
   xmlns:svg="http://www.w3.org/2000/svg"
   xmlns="http://www.w3.org/2000/svg"
   xmlns:sodipodi="http://sodipodi.sourceforge.net/DTD/sodipodi-0.dtd"
   xmlns:inkscape="http://www.inkscape.org/namespaces/inkscape"
   width="47"
   height="34"
   viewBox="0 0 12.435416 8.9958334"
   version="1.1"
   id="svg8"
   inkscape:version="0.92.4 (5da689c313, 2019-01-14)"
   sodipodi:docname="focus.svg">
  <defs
     id="defs2" />
  <sodipodi:namedview
     id="base"
     pagecolor="#ffffff"
     bordercolor="#666666"
     borderopacity="1.0"
     inkscape:pageopacity="0.0"
     inkscape:pageshadow="2"
     inkscape:zoom="5.6"
     inkscape:cx="24.14736"
     inkscape:cy="23.962107"
     inkscape:document-units="mm"
     inkscape:current-layer="layer1"
     showgrid="false"
     units="px"
     inkscape:window-width="1600"
     inkscape:window-height="837"
     inkscape:window-x="-8"
     inkscape:window-y="-8"
     inkscape:window-maximized="1" />
  <metadata
     id="metadata5">
    <rdf:RDF>
      <cc:Work
         rdf:about="">
        <dc:format>image/svg+xml</dc:format>
        <dc:type
           rdf:resource="http://purl.org/dc/dcmitype/StillImage" />
        <dc:title></dc:title>
      </cc:Work>
    </rdf:RDF>
  </metadata>
  <g
     inkscape:label="Layer 1"
     inkscape:groupmode="layer"
     id="layer1"
     transform="translate(0,-288.00417)">
    <path
       style="opacity:1;fill:#000000;fill-opacity:1;stroke:#ffffd9;stroke-width:0.09449405;stroke-opacity:0.25966851"
       d="m 4.3274848,295.10121 c -1.1450001,-0.33138 -2.1381191,-0.89347 -2.9790862,-1.68611 -0.39888604,-0.37597 -0.42222504,-0.47767 -0.193281,-0.8423 0.706176,-1.12471 1.8618391,-1.96075 3.2879612,-2.37859 0.2447579,-0.0717 0.8775433,-0.0971 1.7953855,-0.0722 1.446494,0.0394 1.768557,0.0824 2.267859,0.30329 0.155916,0.069 0.464202,0.19954 0.685082,0.29018 0.22088,0.0906 0.401601,0.19119 0.401601,0.22345 0,0.0323 0.152958,0.14103 0.3399047,0.24171 0.427917,0.23045 1.644471,1.52336 1.644471,1.74769 0,0.13457 -0.62583,0.77788 -1.18681,1.21997 -0.456238,0.35954 -1.3778127,0.75175 -2.3793427,1.01262 -0.747678,0.19474 -2.9265306,0.15941 -3.6837445,-0.0597 z m 0.2914729,-0.63762 c 0.0249,-0.0403 -0.0604,-0.175 -0.189579,-0.29933 -0.4430599,-0.42644 -0.6287159,-0.93344 -0.642099,-1.7535 -0.01191,-0.72951 -0.02048,-0.75687 -0.245234,-0.78221 -0.387736,-0.0437 -1.154369,0.5275 -1.309817,0.97593 -0.117459,0.33885 -0.114088,0.41845 0.03063,0.72343 0.186719,0.39348 0.677995,0.74891 1.3967989,1.01057 0.5395392,0.1964 0.8872141,0.24174 0.9592972,0.12511 z m 4.1974516,-0.10989 c 0.767691,-0.26023 1.0694167,-0.42675 1.5672357,-0.86495 0.500817,-0.44083 0.543486,-0.66758 0.19925,-1.05884 -0.285018,-0.32395 -1.3073037,-0.84464 -1.5794437,-0.80448 -0.183555,0.0271 -0.197271,0.0819 -0.176649,0.70565 0.01852,0.56027 -0.0176,0.75478 -0.210577,1.13393 -0.128114,0.25171 -0.343905,0.56117 -0.479537,0.68769 -0.182694,0.17042 -0.215727,0.24963 -0.12747,0.30566 0.166293,0.10556 0.199898,0.1012 0.807191,-0.10466 z m -1.266248,-1.41896 c 0.163327,-0.0621 0.27315,-0.20983 0.352261,-0.47388 0.10945,-0.36532 0.101335,-0.40053 -0.169805,-0.7366 -0.469358,-0.58175 -1.083799,-0.48824 -1.419661,0.21607 -0.144979,0.30402 -0.14359,0.34337 0.02304,0.65279 0.09753,0.1811 0.264307,0.34656 0.370622,0.36769 0.361578,0.0719 0.605795,0.0643 0.843537,-0.0261 z"
       id="path7822"
       inkscape:connector-curvature="0" />
  </g>
</svg>
