<?xml version="1.0" encoding="UTF-8" standalone="no"?>
<!-- Created with Inkscape (http://www.inkscape.org/) -->

<svg
   xmlns:dc="http://purl.org/dc/elements/1.1/"
   xmlns:cc="http://creativecommons.org/ns#"
   xmlns:rdf="http://www.w3.org/1999/02/22-rdf-syntax-ns#"
   xmlns:svg="http://www.w3.org/2000/svg"
   xmlns="http://www.w3.org/2000/svg"
   xmlns:sodipodi="http://sodipodi.sourceforge.net/DTD/sodipodi-0.dtd"
   xmlns:inkscape="http://www.inkscape.org/namespaces/inkscape"
   width="30"
   height="34"
   viewBox="0 0 7.9374995 8.9958334"
   version="1.1"
   id="svg8"
   inkscape:version="0.92.4 (5da689c313, 2019-01-14)"
   sodipodi:docname="hit.svg">
  <defs
     id="defs2" />
  <sodipodi:namedview
     id="base"
     pagecolor="#ffffff"
     bordercolor="#666666"
     borderopacity="1.0"
     inkscape:pageopacity="0.0"
     inkscape:pageshadow="2"
     inkscape:zoom="1.979899"
     inkscape:cx="-119.86342"
     inkscape:cy="141.62477"
     inkscape:document-units="mm"
     inkscape:current-layer="layer1"
     showgrid="false"
     units="px"
     inkscape:window-width="1600"
     inkscape:window-height="837"
     inkscape:window-x="-8"
     inkscape:window-y="-8"
     inkscape:window-maximized="1" />
  <metadata
     id="metadata5">
    <rdf:RDF>
      <cc:Work
         rdf:about="">
        <dc:format>image/svg+xml</dc:format>
        <dc:type
           rdf:resource="http://purl.org/dc/dcmitype/StillImage" />
        <dc:title></dc:title>
      </cc:Work>
    </rdf:RDF>
  </metadata>
  <g
     inkscape:label="Layer 1"
     inkscape:groupmode="layer"
     id="layer1"
     transform="translate(0,-288.00417)">
    <path
       style="opacity:1;fill:#000000;fill-opacity:1;stroke:#ffffd9;stroke-width:0.09449405;stroke-opacity:0.25966851"
       d="m 2.192922,296.28998 c -0.05529,-0.0558 0.01752,-0.40417 0.306515,-1.46637 0.159697,-0.58699 0.148738,-0.79227 -0.04444,-0.83227 -0.09778,-0.0202 -0.267872,0.009 -0.377978,0.0642 -0.507749,0.25632 -1.40241604,0.50129 -1.49449704,0.40921 -0.09806,-0.0981 0.194205,-0.40223 1.02957104,-1.07148 0.218196,-0.17482 0.398917,-0.38341 0.401598,-0.46354 0.003,-0.0883 -0.218342,-0.24816 -0.562086,-0.40595 -0.397849,-0.18261 -0.56696504,-0.31291 -0.56696504,-0.43682 0,-0.15085 0.103288,-0.18626 0.70870704,-0.24299 0.389787,-0.0365 0.708705,-0.10913 0.708705,-0.16135 0,-0.10775 -0.730573,-1.48897 -0.860197,-1.62628 -0.04661,-0.0494 -0.08474,-0.19261 -0.08474,-0.31832 v -0.22855 l 0.354351,0.26608 c 0.194895,0.14634 0.375616,0.28959 0.401601,0.31832 0.25391,0.28075 0.979895,0.76775 1.084612,0.72757 0.07336,-0.0281 0.159832,-0.21288 0.192159,-0.4105 0.119096,-0.7281 0.366008,-1.72949 0.426439,-1.72949 0.08346,0 0.354783,0.97781 0.423945,1.52781 0.06025,0.47914 0.252671,0.72763 0.447807,0.57831 0.06497,-0.0497 0.420478,-0.33131 0.790027,-0.62578 0.369549,-0.29447 0.699098,-0.5354 0.73233,-0.5354 0.16088,0 0.0205,0.42858 -0.364805,1.11374 -0.550127,0.97825 -0.548375,1.05736 0.02363,1.06791 0.246867,0.005 0.654619,0.0364 0.906119,0.0709 l 0.457269,0.0626 -0.221036,0.19513 c -0.196596,0.17355 -0.664321,0.39868 -1.142352,0.54985 -0.377224,0.11928 -0.136107,0.4467 0.926444,1.25801 0.708742,0.54117 0.521885,0.62132 -0.619339,0.26568 -0.285843,-0.0891 -0.668544,-0.16822 -0.850445,-0.17588 l -0.330729,-0.0139 v 0.7243 c 0,0.39836 -0.02837,0.75274 -0.06305,0.7875 -0.03468,0.0348 -0.283062,-0.21676 -0.551966,-0.55894 -0.443238,-0.564 -0.6599,-0.74467 -0.661093,-0.55126 -2.38e-4,0.039 -0.127807,0.20676 -0.283482,0.37285 -0.155676,0.16609 -0.283046,0.32733 -0.283046,0.35832 0,0.1245 -0.621729,0.89173 -0.7254,0.89516 -0.06115,0.002 -0.124937,0.0713 -0.14174,0.15391 -0.0168,0.0826 -0.0584,0.1221 -0.09244,0.0877 z"
       id="path7818"
       inkscape:connector-curvature="0" />
  </g>
</svg>
