<?xml version="1.0" encoding="UTF-8" standalone="no"?>
<!-- Created with Inkscape (http://www.inkscape.org/) -->

<svg
   xmlns:dc="http://purl.org/dc/elements/1.1/"
   xmlns:cc="http://creativecommons.org/ns#"
   xmlns:rdf="http://www.w3.org/1999/02/22-rdf-syntax-ns#"
   xmlns:svg="http://www.w3.org/2000/svg"
   xmlns="http://www.w3.org/2000/svg"
   xmlns:sodipodi="http://sodipodi.sourceforge.net/DTD/sodipodi-0.dtd"
   xmlns:inkscape="http://www.inkscape.org/namespaces/inkscape"
   width="34"
   height="34"
   viewBox="0 0 8.9958329 8.9958334"
   version="1.1"
   id="svg8"
   inkscape:version="0.92.4 (5da689c313, 2019-01-14)"
   sodipodi:docname="lock.svg">
  <defs
     id="defs2" />
  <sodipodi:namedview
     id="base"
     pagecolor="#ffffff"
     bordercolor="#666666"
     borderopacity="1.0"
     inkscape:pageopacity="0.0"
     inkscape:pageshadow="2"
     inkscape:zoom="5.6"
     inkscape:cx="24.14736"
     inkscape:cy="23.962107"
     inkscape:document-units="mm"
     inkscape:current-layer="layer1"
     showgrid="false"
     units="px"
     inkscape:window-width="1600"
     inkscape:window-height="837"
     inkscape:window-x="-8"
     inkscape:window-y="-8"
     inkscape:window-maximized="1" />
  <metadata
     id="metadata5">
    <rdf:RDF>
      <cc:Work
         rdf:about="">
        <dc:format>image/svg+xml</dc:format>
        <dc:type
           rdf:resource="http://purl.org/dc/dcmitype/StillImage" />
        <dc:title></dc:title>
      </cc:Work>
    </rdf:RDF>
  </metadata>
  <g
     inkscape:label="Layer 1"
     inkscape:groupmode="layer"
     id="layer1"
     transform="translate(0,-288.00417)">
    <path
       style="opacity:1;fill:#000000;fill-opacity:1;stroke:#ffffd9;stroke-width:0.13363476;stroke-opacity:0.25966851"
       d="m 2.7225863,294.8229 0.7460641,-0.84978 -0.33152,-0.44935 c -0.4902311,-0.66447 -0.6272641,-0.69999 -1.5881671,-0.41171 -0.4740271,0.14221 -0.89514606,0.22528 -0.93582306,0.1846 -0.120335,-0.12033 -0.08422,-1.76666 0.03875,-1.76666 0.06199,0 0.46229106,0.12027 0.88954806,0.26727 0.427257,0.147 0.847558,0.26727 0.933998,0.26727 0.08644,0 0.341685,-0.22961 0.567208,-0.51025 l 0.410044,-0.51024 -0.66415,-0.75716 c -0.365281,-0.41643 -0.62639,-0.81825 -0.580241,-0.89292 0.11367,-0.18392 4.2108091,-0.18416 4.2108091,-2.4e-4 0,0.0745 -0.270611,0.46776 -0.6013561,0.87383 -0.5828239,0.71555 -0.7205871,0.99517 -0.490302,0.99517 0.06108,0 0.1909789,0.14934 0.288666,0.33187 0.2535081,0.47369 0.516477,0.51036 1.4843551,0.20698 0.47049,-0.14747 0.9005379,-0.26891 0.9556639,-0.26986 0.1309081,-0.002 0.1309081,1.70119 0,1.78042 -0.05513,0.0334 -0.4610389,-0.0524 -0.902036,-0.1906 -0.4409941,-0.13819 -0.8988661,-0.25214 -1.0174949,-0.25323 -0.199662,-0.002 -0.9202071,0.87749 -0.9202071,1.12297 0,0.0596 0.306628,0.46225 0.6813941,0.89485 l 0.6813979,0.78655 H 4.2778542 1.9765223 Z m 1.3953069,-1.44604 c 0.121123,-0.12113 0.2390322,-0.11411 0.5088011,0.0303 0.3217281,0.17219 0.371393,0.16292 0.592921,-0.11066 0.3189181,-0.39385 0.3270961,-1.40071 0.013679,-1.68435 -0.2014879,-0.18235 -0.2718329,-0.18374 -0.6029349,-0.012 -0.3291681,0.17077 -0.4094691,0.17021 -0.6591249,-0.005 -0.3826452,-0.26801 -0.449552,-0.25464 -0.709326,0.14183 -0.1595781,0.24354 -0.1822821,0.38206 -0.07948,0.48487 0.101891,0.10189 0.1024469,0.21034 0.00191,0.37133 -0.1069921,0.17132 -0.08436,0.31541 0.09176,0.58421 0.2484782,0.37922 0.5826491,0.45827 0.8417931,0.19913 z"
       id="path7850"
       inkscape:connector-curvature="0" />
  </g>
</svg>
