<?xml version="1.0" encoding="UTF-8" standalone="no"?>
<!-- Created with Inkscape (http://www.inkscape.org/) -->

<svg
   width="73.677803mm"
   height="81.087631mm"
   viewBox="0 0 73.677803 81.087631"
   version="1.1"
   id="svg5"
   xml:space="preserve"
   inkscape:version="1.3 (0e150ed6c4, 2023-07-21)"
   sodipodi:docname="Ship Foms Vector.svg"
   inkscape:export-filename="..\damage-control-icon.svg"
   inkscape:export-xdpi="96"
   inkscape:export-ydpi="96"
   xmlns:inkscape="http://www.inkscape.org/namespaces/inkscape"
   xmlns:sodipodi="http://sodipodi.sourceforge.net/DTD/sodipodi-0.dtd"
   xmlns="http://www.w3.org/2000/svg"
   xmlns:svg="http://www.w3.org/2000/svg"><sodipodi:namedview
     id="namedview7"
     pagecolor="#ffffff"
     bordercolor="#000000"
     borderopacity="0.25"
     inkscape:showpageshadow="2"
     inkscape:pageopacity="0.0"
     inkscape:pagecheckerboard="0"
     inkscape:deskcolor="#d1d1d1"
     inkscape:document-units="mm"
     showgrid="false"
     inkscape:zoom="0.50000001"
     inkscape:cx="-7178.9998"
     inkscape:cy="-1441"
     inkscape:window-width="1920"
     inkscape:window-height="1009"
     inkscape:window-x="-8"
     inkscape:window-y="-8"
     inkscape:window-maximized="1"
     inkscape:current-layer="layer1"
     showguides="false" /><defs
     id="defs2" /><g
     inkscape:label="Layer 1"
     inkscape:groupmode="layer"
     id="layer1"
     transform="translate(677.74281,192.48524)"><path
       style="fill:#00b0f0;fill-opacity:1;stroke:#ffffff;stroke-width:2.14207;stroke-linecap:round;stroke-linejoin:miter;stroke-dasharray:none;stroke-opacity:1;paint-order:stroke fill markers;stop-color:#000000"
       d="m -617.66648,-191.41109 c -1.55535,0.12352 -3.26944,0.19778 -4.44565,1.37007 -1.90994,0.90402 -3.44402,2.47523 -4.43637,4.32883 -1.30844,1.35707 -1.40048,3.36919 -1.68116,5.13211 -0.18922,1.99063 0.0357,4.04087 -0.18493,5.99901 -1.28332,2.63296 -3.57076,4.53376 -5.34961,6.79921 -0.43983,0.76993 -1.43561,1.09803 -1.75678,1.98913 -0.56765,0.80134 -1.5208,1.24982 -1.95321,2.16584 -0.56907,0.65619 -1.33679,1.12716 -1.72465,1.93172 -0.83027,0.81777 -1.64532,1.64611 -2.32015,2.60154 -1.00577,0.64548 -1.37699,1.88881 -2.37998,2.54685 -2.6426,3.2528 -5.48862,6.33945 -8.31729,9.42817 -0.44698,0.98821 -1.57749,1.38021 -2.04239,2.37277 -0.52267,0.81278 -1.50931,1.18928 -1.89052,2.11108 -1.57728,1.71337 -3.0703,3.52985 -4.81423,5.08021 -1.40006,0.77214 -3.09336,0.27418 -4.63944,0.50909 -1.97463,0.21564 -4.20217,0.36987 -5.65192,1.9088 -0.88239,0.52124 -1.66339,1.17393 -2.20619,2.05539 -0.84104,0.71259 -1.41876,1.72115 -1.67438,2.83317 -0.36843,1.42091 -1.62297,2.52364 -1.47638,4.07907 -0.0778,1.18706 -0.1778,2.53792 0.63548,3.50521 2.56591,-1.21127 3.84301,-3.97654 6.05313,-5.633 1.51115,-0.66047 3.12984,0.006 4.44907,0.78436 1.32716,0.48125 3.10693,0.95522 3.36669,2.5954 0.3156,1.49916 0.56908,3.06451 0.61906,4.57239 -0.70831,2.25767 -2.81168,3.61445 -4.19567,5.38616 0.18707,0.77157 -0.20421,2.28801 0.90774,2.4793 1.66624,-0.19207 3.23131,-0.92402 4.85278,-1.3515 1.2771,-0.36915 1.94265,-1.62098 3.08465,-2.2174 0.87447,-0.94787 1.24233,-2.29766 2.31858,-3.07901 1.38385,-1.9797 1.02755,-4.57439 1.02698,-6.85705 0.0964,-0.91845 -0.47911,-2.10522 0.47768,-2.67366 0.64976,-0.80849 1.03076,-1.82911 1.93343,-2.42939 0.74715,-0.86204 1.35921,-1.83754 2.21411,-2.62054 2.59062,-2.97661 5.17674,-5.95995 7.85997,-8.8516 0.52124,-1.06432 1.74336,-1.49516 2.22147,-2.58797 0.46554,-0.75744 1.4541,-1.03648 1.735,-1.90787 1.38956,-1.62255 2.97384,-3.07123 4.24465,-4.79338 1.78699,-2.02604 3.62174,-4.01659 5.37945,-6.06441 0.45912,-0.90124 1.52744,-1.30709 1.94964,-2.26074 0.63977,-0.72516 1.48924,-1.25825 1.94172,-2.147 0.72037,-0.65047 1.40441,-1.3365 1.95135,-2.13228 1.18756,-0.96393 2.85759,-0.50339 4.272,-0.61406 1.19891,0.0828 2.38698,0.0857 3.4221,-0.61478 1.3902,-0.70474 3.05137,-0.95265 4.07228,-2.26202 1.47096,-1.34743 2.93093,-2.86909 3.35805,-4.89249 0.34345,-1.21819 1.38235,-2.20583 1.24312,-3.5649 -0.0757,-1.09074 0.54551,-2.83967 -0.78386,-3.39018 -0.82012,0.40271 -1.32487,1.32951 -2.21147,1.6816 -0.72844,0.66832 -1.10538,1.65225 -1.97156,2.20333 -0.54837,0.35273 -0.48625,1.14679 -1.16586,1.34929 -1.74957,0.76714 -3.75054,0.16993 -5.49804,-0.32203 -0.96179,-0.58621 -1.97178,-1.25147 -2.70858,-2.10715 -0.43841,-1.9093 -0.75679,-3.87029 -0.96593,-5.80879 0.0942,-1.13301 0.42627,-2.27781 1.39199,-2.97498 0.72752,-0.77543 1.22983,-1.74885 2.14292,-2.33421 0.58336,-0.79892 1.23648,-1.58327 1.82376,-2.35763 -0.68118,-0.46198 -1.62583,-0.99042 -2.50372,-0.94937 z"
       id="path24550"
       inkscape:export-filename="damage-control-icon.png"
       inkscape:export-xdpi="96"
       inkscape:export-ydpi="96" /></g></svg>
