<?xml version="1.0" encoding="UTF-8" standalone="no"?>
<!-- Created with Inkscape (http://www.inkscape.org/) -->

<svg
   width="56.828831mm"
   height="103.62335mm"
   viewBox="0 0 56.828831 103.62335"
   version="1.1"
   id="svg5"
   xml:space="preserve"
   inkscape:version="1.3 (0e150ed6c4, 2023-07-21)"
   sodipodi:docname="Ship Foms Vector.svg"
   inkscape:export-filename="..\damage-control-icon.svg"
   inkscape:export-xdpi="96"
   inkscape:export-ydpi="96"
   xmlns:inkscape="http://www.inkscape.org/namespaces/inkscape"
   xmlns:sodipodi="http://sodipodi.sourceforge.net/DTD/sodipodi-0.dtd"
   xmlns="http://www.w3.org/2000/svg"
   xmlns:svg="http://www.w3.org/2000/svg"><sodipodi:namedview
     id="namedview7"
     pagecolor="#ffffff"
     bordercolor="#000000"
     borderopacity="0.25"
     inkscape:showpageshadow="2"
     inkscape:pageopacity="0.0"
     inkscape:pagecheckerboard="0"
     inkscape:deskcolor="#d1d1d1"
     inkscape:document-units="mm"
     showgrid="false"
     inkscape:zoom="0.50000001"
     inkscape:cx="-7178.9998"
     inkscape:cy="-1441"
     inkscape:window-width="1920"
     inkscape:window-height="1009"
     inkscape:window-x="-8"
     inkscape:window-y="-8"
     inkscape:window-maximized="1"
     inkscape:current-layer="layer1"
     showguides="false" /><defs
     id="defs2" /><g
     inkscape:label="Layer 1"
     inkscape:groupmode="layer"
     id="layer1"
     transform="translate(936.25027,343.82107)"><path
       id="path24546"
       style="fill:#ffffff;fill-opacity:1;stroke:none;stroke-width:3.40364;stroke-linecap:round;stroke-linejoin:miter;stroke-dasharray:none;stroke-opacity:1;paint-order:stroke fill markers;stop-color:#000000"
       d="m -910.21242,-343.82107 c -24.5232,0.0708 -26.03785,53.50555 -26.03785,53.50555 0,0 9.18815,-11.26075 22.92632,-14.19692 v 16.88193 l -7.3483,5.18728 v -7.2833 c -2.90787,-4.11454 -5.32052,-3.45048 -7.44578,0 l -0.7837,49.5288 h 8.0835 l 2.4007,-2.4007 v -10.28919 h -2.25449 v -16.163 c 1.77013,-1.08389 4.94399,-2.85291 7.34831,-4.17168 v 6.02804 c 1.15825,7.26247 3.35065,10.03906 6.07276,10.52484 1.95517,0.57854 3.91048,-0.88966 5.86565,-10.15925 v -6.57647 c 2.60594,1.42701 6.31739,3.48955 8.05104,4.58201 v 15.93551 h -2.2545 v 10.28919 l 2.4007,2.4007 h 8.08351 l -0.7837,-49.5288 c -2.12527,-3.45048 -4.53791,-4.11454 -7.44578,0 v 7.54325 l -8.05104,-5.68281 v -16.87383 c 13.90812,2.40439 21.96364,13.24641 21.96364,13.24641 0,0 -0.85358,-51.4081 -30.20553,-52.31946 -0.19573,-0.006 -0.39146,-0.008 -0.58483,-0.008 z m 8.82688,61.37375 c 3.3876,2.44511 8.05104,6.92588 8.05104,6.92588 v 2.05538 l -8.05104,-5.00043 z m -11.93841,0.24368 v 3.94428 l -7.3483,4.56165 v -2.17314 c 1.11698,-1.05575 4.57705,-4.2767 7.3483,-6.33279 z" /></g></svg>
