<?xml version="1.0" encoding="UTF-8" standalone="no"?>
<!-- Created with Inkscape (http://www.inkscape.org/) -->

<svg
   width="74.793884mm"
   height="103.84725mm"
   viewBox="0 0 74.793884 103.84725"
   version="1.1"
   id="svg5"
   xml:space="preserve"
   inkscape:version="1.3 (0e150ed6c4, 2023-07-21)"
   sodipodi:docname="Ship Foms Vector.svg"
   inkscape:export-filename="..\damage-control-icon.svg"
   inkscape:export-xdpi="96"
   inkscape:export-ydpi="96"
   xmlns:inkscape="http://www.inkscape.org/namespaces/inkscape"
   xmlns:sodipodi="http://sodipodi.sourceforge.net/DTD/sodipodi-0.dtd"
   xmlns="http://www.w3.org/2000/svg"
   xmlns:svg="http://www.w3.org/2000/svg"><sodipodi:namedview
     id="namedview7"
     pagecolor="#ffffff"
     bordercolor="#000000"
     borderopacity="0.25"
     inkscape:showpageshadow="2"
     inkscape:pageopacity="0.0"
     inkscape:pagecheckerboard="0"
     inkscape:deskcolor="#d1d1d1"
     inkscape:document-units="mm"
     showgrid="false"
     inkscape:zoom="0.50000001"
     inkscape:cx="-7178.9998"
     inkscape:cy="-1441"
     inkscape:window-width="1920"
     inkscape:window-height="1009"
     inkscape:window-x="-8"
     inkscape:window-y="-8"
     inkscape:window-maximized="1"
     inkscape:current-layer="layer1"
     showguides="false" /><defs
     id="defs2" /><g
     inkscape:label="Layer 1"
     inkscape:groupmode="layer"
     id="layer1"
     transform="translate(677.74287,106.10595)"><g
       id="g62043-2-6"
       transform="matrix(11.424717,0,0,11.424717,-1644.5729,381.77016)"><path
         id="path62039-6-7"
         style="fill:#1fb864;fill-opacity:1;stroke:none;stroke-width:2.5;stroke-linecap:round;stroke-linejoin:bevel;stroke-dasharray:none;stroke-opacity:1;paint-order:stroke fill markers;stop-color:#000000"
         d="m 86.5847,-42.703506 c -0.73039,0.0159 -0.95808,1.033528 -0.95808,1.033528 0.0744,0.02479 1.87689,0 1.87689,0 0,0 -0.1571,-1.033528 -0.90124,-1.033528 -0.0058,0 -0.01181,-1.25e-4 -0.01757,0 z m -1.59163,0.05219 -0.31574,0.06976 0.23719,0.429948 c 0,0 -0.21371,0.08463 -0.22531,0.09043 l 0.67541,1.686719 0.46768,0.81597 -0.10801,0.374138 0.50281,0.382922 0.22015,-0.189652 -0.02481,-0.744141 z m 0.92914,1.095024 0.24392,0.694014 h 0.28318 l -0.02274,0.31781 c 0.02235,-0.0046 0.21987,-0.01057 0.31575,-0.0124 l -0.0801,-0.305408 h 0.29145 l 0.18604,-0.694014 z m 0.82011,0.999422 5.1e-4,0.0026 c 0.03248,-0.0014 0.04828,-0.0026 0.05116,-0.0031 -0.0024,-4.34e-4 -0.02234,-4.5e-5 -0.05167,5.17e-4 z m -0.65836,0.04806 c 0,0 0.36116,0.674376 0.40256,0.773596 0.0413,0.09922 0.0248,0.56224 0.0248,0.744141 0,0.1819 0.28982,1.107942 0.33952,1.215429 0.04959,0.107487 0.18189,0.79375 0.13229,0.93431 -0.04961,0.140564 -0.52915,0.198434 -0.66973,0.214974 -0.14054,0.01654 -0.45475,-0.272851 -0.45475,-0.272851 0,0 -0.13228,2.554883 -0.08268,2.703711 0.04961,0.148828 0.12401,0.396874 0.26458,0.520898 0.14055,0.124025 0.47958,-0.04134 0.57878,-0.08268 0.0992,-0.04134 0,-2.703711 0,-2.703711 l 0.11575,-0.148828 c 0,0 0.02415,2.728515 0.0078,2.778125 -0.01654,0.04961 0.18191,0.181904 0.39688,0.214974 0.215,0.03307 0.31419,-0.231511 0.31419,-0.231511 v -5.83737 l 0.10749,-0.01654 c 0,0 0.07455,1.53789 0.09095,1.794206 0.01654,0.256314 0.04961,0.545703 0.34727,0.760677 0.29762,0.214974 0.248,-1.909961 0.2067,-2.538347 -0.04136,-0.628384 -0.61133,-0.823205 -0.61133,-0.823205 z m -0.68058,0.360185 -0.29765,0.314192 -0.47956,0.669727 c 0,0 0.37207,0.7028 1.42213,1.289844 1.05007,0.587044 0.44649,-0.463021 0.44649,-0.463021 l -0.86817,-0.818555 0.09922,-0.314193 z m 0.53744,2.538346 c 0,0 -0.12608,0.411344 -0.02067,0.599447 0.10543,0.188097 0.47956,0.121952 0.81028,0.06821 0.33086,-0.05374 -0.0041,-0.601513 -0.0041,-0.601513 z" /><path
         id="path62041-7-7"
         style="fill:#1fb864;fill-opacity:1;stroke:none;stroke-width:2.5;stroke-linecap:round;stroke-linejoin:bevel;stroke-dasharray:none;stroke-opacity:1;paint-order:stroke fill markers;stop-color:#000000"
         d="m 89.519924,-42.703506 c -0.73039,0.0159 -0.95808,1.033528 -0.95808,1.033528 0.0744,0.02479 1.87689,0 1.87689,0 0,0 -0.1571,-1.033528 -0.90124,-1.033528 -0.0058,0 -0.01181,-1.25e-4 -0.01757,0 z m -1.59163,0.05219 -0.31574,0.06976 0.23719,0.429948 c 0,0 -0.21371,0.08463 -0.22531,0.09043 l 0.67541,1.686719 0.46768,0.81597 -0.10801,0.374138 0.50281,0.382922 0.22015,-0.189652 -0.02481,-0.744141 z m 0.92914,1.095024 0.24392,0.694014 h 0.28318 l -0.02274,0.31781 c 0.02235,-0.0046 0.21987,-0.01057 0.31575,-0.0124 l -0.0801,-0.305408 h 0.29145 l 0.18604,-0.694014 z m 0.82011,0.999422 5.1e-4,0.0026 c 0.03248,-0.0014 0.04828,-0.0026 0.05116,-0.0031 -0.0024,-4.34e-4 -0.02234,-4.5e-5 -0.05167,5.17e-4 z m -0.65836,0.04806 c 0,0 0.36116,0.674376 0.40256,0.773596 0.0413,0.09922 0.0248,0.56224 0.0248,0.744141 0,0.1819 0.28982,1.107942 0.33952,1.215429 0.04959,0.107487 0.18189,0.79375 0.13229,0.93431 -0.04961,0.140564 -0.52915,0.198434 -0.66973,0.214974 -0.14054,0.01654 -0.45475,-0.272851 -0.45475,-0.272851 0,0 -0.13228,2.554883 -0.08268,2.703711 0.04961,0.148828 0.12401,0.396874 0.26458,0.520898 0.14055,0.124025 0.47958,-0.04134 0.57878,-0.08268 0.0992,-0.04134 0,-2.703711 0,-2.703711 l 0.11575,-0.148828 c 0,0 0.02415,2.728515 0.0078,2.778125 -0.01654,0.04961 0.18191,0.181904 0.39688,0.214974 0.215,0.03307 0.31419,-0.231511 0.31419,-0.231511 v -5.83737 l 0.10749,-0.01654 c 0,0 0.07455,1.53789 0.09095,1.794206 0.01654,0.256314 0.04961,0.545703 0.34727,0.760677 0.29762,0.214974 0.248,-1.909961 0.2067,-2.538347 -0.04136,-0.628384 -0.61133,-0.823205 -0.61133,-0.823205 z m -0.68058,0.360185 -0.29765,0.314192 -0.47956,0.669727 c 0,0 0.37207,0.7028 1.42213,1.289844 1.05007,0.587044 0.44649,-0.463021 0.44649,-0.463021 l -0.86817,-0.818555 0.09922,-0.314193 z m 0.53744,2.538346 c 0,0 -0.12608,0.411344 -0.02067,0.599447 0.10543,0.188097 0.47956,0.121952 0.81028,0.06821 0.33086,-0.05374 -0.0041,-0.601513 -0.0041,-0.601513 z" /></g></g></svg>
