<?xml version="1.0" encoding="UTF-8" standalone="no"?>
<!-- Created with Inkscape (http://www.inkscape.org/) -->

<svg
   width="56.506241mm"
   height="95.197784mm"
   viewBox="0 0 56.506241 95.197784"
   version="1.1"
   id="svg5"
   xml:space="preserve"
   inkscape:version="1.3 (0e150ed6c4, 2023-07-21)"
   sodipodi:docname="Ship Foms Vector.svg"
   inkscape:export-filename="..\damage-control-icon.svg"
   inkscape:export-xdpi="96"
   inkscape:export-ydpi="96"
   xmlns:inkscape="http://www.inkscape.org/namespaces/inkscape"
   xmlns:sodipodi="http://sodipodi.sourceforge.net/DTD/sodipodi-0.dtd"
   xmlns="http://www.w3.org/2000/svg"
   xmlns:svg="http://www.w3.org/2000/svg"><sodipodi:namedview
     id="namedview7"
     pagecolor="#ffffff"
     bordercolor="#000000"
     borderopacity="0.25"
     inkscape:showpageshadow="2"
     inkscape:pageopacity="0.0"
     inkscape:pagecheckerboard="0"
     inkscape:deskcolor="#d1d1d1"
     inkscape:document-units="mm"
     showgrid="false"
     inkscape:zoom="0.50000001"
     inkscape:cx="-7178.9998"
     inkscape:cy="-1441"
     inkscape:window-width="1920"
     inkscape:window-height="1009"
     inkscape:window-x="-8"
     inkscape:window-y="-8"
     inkscape:window-maximized="1"
     inkscape:current-layer="layer1"
     showguides="false" /><defs
     id="defs2" /><g
     inkscape:label="Layer 1"
     inkscape:groupmode="layer"
     id="layer1"
     transform="translate(742.68544,97.015439)"><path
       id="path62035-5-8"
       style="fill:#1fb864;fill-opacity:1;stroke:none;stroke-width:2.98797;stroke-linecap:round;stroke-linejoin:bevel;stroke-dasharray:none;stroke-opacity:1;paint-order:stroke fill markers;stop-color:#000000"
       d="m -715.82892,-97.015434 v 0.20617 c -9.62485,1.785612 -11.20997,14.452519 -11.20997,14.452519 v 21.740584 l -5.74916,2.187494 0.1494,-6.140282 c 0,0 -3.95279,-11.364453 -5.10575,-12.187938 -1.15286,-0.823684 -4.77766,11.199716 -4.94101,12.187938 l 1.48234,55.3397326 2.63519,7.4115651 4.61163,-8.5645237 0.72011,-29.666878 5.70274,0.349593 v 9.223272 c 0,0 4.56482,7.026117 12.18794,7.133584 v 0.0052 c 0.0299,0 0.0598,2e-4 0.0896,0 0.0299,2e-4 0.0598,0 0.0896,0 v -0.0052 c 7.64851,-0.106571 13.8349,-7.133584 13.8349,-7.133584 v -9.223272 l 5.70285,-0.349593 0.7201,29.666878 4.61164,8.5645237 2.63529,-7.4115651 1.48233,-55.3397326 c -0.16334,-0.988023 -3.78825,-13.011423 -4.94111,-12.187938 -1.15296,0.823684 -5.10575,12.187938 -5.10575,12.187938 l 0.1494,6.140282 -5.74916,-2.187494 v -21.740584 c 0,0 -2.1612,-12.677166 -11.8739,-14.452519 l 0.005,-0.20617 c -0.36055,0.0051 -0.71313,0.01992 -1.05505,0.05976 -0.007,-6.97e-4 -0.01,5.98e-4 -0.0199,0 -0.34262,-0.02988 -0.6952,-0.0498 -1.05515,-0.05976 z" /></g></svg>
