<?xml version="1.0" encoding="UTF-8" standalone="no"?>
<!-- Created with Inkscape (http://www.inkscape.org/) -->

<svg
   width="58.533054mm"
   height="64.421555mm"
   viewBox="0 0 58.533054 64.421555"
   version="1.1"
   id="svg5"
   xml:space="preserve"
   inkscape:version="1.3 (0e150ed6c4, 2023-07-21)"
   sodipodi:docname="Ship Foms Vector.svg"
   inkscape:export-filename="..\damage-control-icon.svg"
   inkscape:export-xdpi="96"
   inkscape:export-ydpi="96"
   xmlns:inkscape="http://www.inkscape.org/namespaces/inkscape"
   xmlns:sodipodi="http://sodipodi.sourceforge.net/DTD/sodipodi-0.dtd"
   xmlns="http://www.w3.org/2000/svg"
   xmlns:svg="http://www.w3.org/2000/svg"><sodipodi:namedview
     id="namedview7"
     pagecolor="#ffffff"
     bordercolor="#000000"
     borderopacity="0.25"
     inkscape:showpageshadow="2"
     inkscape:pageopacity="0.0"
     inkscape:pagecheckerboard="0"
     inkscape:deskcolor="#d1d1d1"
     inkscape:document-units="mm"
     showgrid="false"
     inkscape:zoom="0.50000001"
     inkscape:cx="-7178.9998"
     inkscape:cy="-1441"
     inkscape:window-width="1920"
     inkscape:window-height="1009"
     inkscape:window-x="-8"
     inkscape:window-y="-8"
     inkscape:window-maximized="1"
     inkscape:current-layer="layer1"
     showguides="false" /><defs
     id="defs2" /><g
     inkscape:label="Layer 1"
     inkscape:groupmode="layer"
     id="layer1"
     transform="translate(822.15956,138.36436)"><path
       style="fill:#000000;fill-opacity:1;stroke:#ffffff;stroke-width:1.70174;stroke-linecap:round;stroke-linejoin:miter;stroke-dasharray:none;stroke-opacity:1;paint-order:stroke fill markers;stop-color:#000000"
       d="m -811.35262,-74.797631 c 1.2358,-0.106603 2.59741,-0.157541 3.53175,-1.088572 1.51738,-0.719002 2.73612,-1.966535 3.52442,-3.439007 1.03882,-1.077909 1.11344,-2.676652 1.33554,-4.077107 0.15043,-1.581449 -0.0356,-3.210399 0.14569,-4.765909 1.01869,-2.091736 2.83668,-3.601876 4.24981,-5.401514 0.34944,-0.611213 1.1407,-0.872987 1.3962,-1.580385 0.4513,-0.636083 1.20832,-0.992624 1.55159,-1.720509 0.45249,-0.52119 1.06251,-0.896681 1.37026,-1.534662 0.65976,-0.649112 1.30664,-1.308059 1.84321,-2.066744 0.79955,-0.5129 1.09451,-1.50055 1.89062,-2.02339 2.09943,-2.58415 4.36045,-5.03633 6.6076,-7.49006 0.35535,-0.78534 1.25309,-1.09686 1.62266,-1.88504 0.41457,-0.64556 1.19956,-0.94525 1.50185,-1.67704 1.25309,-1.3616 2.43915,-2.80422 3.82457,-4.03601 1.11226,-0.61239 2.45752,-0.21794 3.68574,-0.4051 1.5689,-0.17175 3.33845,-0.29494 4.49015,-1.51642 0.70123,-0.41576 1.32108,-0.93221 1.75274,-1.63297 0.66806,-0.5662 1.12765,-1.36729 1.32961,-2.25082 0.29257,-1.12885 1.28923,-2.00479 1.17385,-3.24049 0.0592,-0.94288 0.14451,-2.01617 -0.50579,-2.78456 -2.03855,0.96301 -3.05297,3.15899 -4.80865,4.47498 -1.20111,0.52475 -2.48655,-0.004 -3.53461,-0.62304 -1.05303,-0.38261 -2.46842,-0.75929 -2.67476,-2.06189 -0.24992,-1.19093 -0.45249,-2.43454 -0.49157,-3.63244 0.56265,-1.79372 2.23364,-2.87151 3.33323,-4.27907 -0.14925,-0.6124 0.16228,-1.81753 -0.72136,-1.96962 -1.32394,0.15398 -2.5671,0.7344 -3.85526,1.07435 -1.01512,0.29259 -1.54343,1.2877 -2.45065,1.76162 -0.69412,0.75336 -0.98669,1.82522 -1.8418,2.44602 -1.10041,1.57281 -0.81613,3.6341 -0.81495,5.44737 -0.0711,0.72966 0.38141,1.67253 -0.38023,2.12419 -0.51644,0.64083 -0.81968,1.45317 -1.53608,1.92993 -0.59345,0.68465 -1.07909,1.4598 -1.75902,2.08192 -2.05809,2.36488 -4.11263,4.73486 -6.24417,7.03212 -0.41577,0.84574 -1.3847,1.18806 -1.76493,2.05596 -0.36956,0.60173 -1.15491,0.82324 -1.37877,1.51571 -1.10398,1.28922 -2.36265,2.43975 -3.37221,3.80798 -1.4193,1.60965 -2.87719,3.19098 -4.27361,4.81779 -0.36365,0.71663 -1.2139,1.03764 -1.54889,1.795965 -0.50934,0.576862 -1.18333,0.999733 -1.54259,1.705824 -0.57213,0.517635 -1.11581,1.062513 -1.55006,1.693858 -0.94406,0.766381 -2.27036,0.399183 -3.394,0.488022 -0.95234,-0.05923 -1.89617,-0.07108 -2.71858,0.489206 -1.10398,0.560279 -2.42411,0.755724 -3.23516,1.796911 -1.16793,1.070805 -2.32839,2.279367 -2.66789,3.886758 -0.27361,0.967748 -1.09803,1.752495 -0.98669,2.832184 0.0592,0.867062 -0.43354,2.25603 0.62306,2.693236 0.65148,-0.319824 1.05184,-1.056592 1.75686,-1.335308 0.57805,-0.530664 0.87892,-1.312446 1.5663,-1.750363 0.43471,-0.28073 0.38615,-0.910895 0.92628,-1.071989 1.39027,-0.608842 2.97966,-0.130296 4.36791,0.255855 0.76401,0.465519 1.56641,0.994996 2.1518,1.674082 0.34824,1.516652 0.60173,3.074534 0.76756,4.614643 -0.0711,0.90023 -0.33995,1.809467 -1.10634,2.363464 -0.57804,0.61595 -0.97723,1.388968 -1.70238,1.854362 -0.46197,0.6349 -0.98315,1.257487 -1.4489,1.872957 0.54013,0.367204 1.29219,0.786521 1.98916,0.754541 z"
       id="path12337" /></g></svg>
